<svg version="1.1" xmlns="http://www.w3.org/2000/svg" xmlns:xlink="http://www.w3.org/1999/xlink" viewBox="0 0 172 172"><g fill="none" fill-rule="nonzero" stroke="none" stroke-width="1" stroke-linecap="butt" stroke-linejoin="miter" stroke-miterlimit="10" stroke-dasharray="" stroke-dashoffset="0" font-family="none" font-weight="none" font-size="none" text-anchor="none" style="mix-blend-mode: normal"><path d="M0,172v-172h172v172z" fill="none"></path><g fill="#717171"><path d="M136.16667,21.5h-100.33333c-7.91917,0 -14.33333,6.41417 -14.33333,14.33333v43h61.533l-11.4165,-11.4165c-2.80217,-2.80217 -2.80217,-7.3315 0,-10.13367c2.80217,-2.80217 7.3315,-2.80217 10.13367,0l23.65,23.65c2.795,2.795 2.795,7.33867 0,10.13367l-23.65,23.65c-1.3975,1.3975 -3.23217,2.09983 -5.06683,2.09983c-1.83467,0 -3.66933,-0.70233 -5.06683,-2.09983c-2.80217,-2.80217 -2.80217,-7.3315 0,-10.13367l11.4165,-11.4165h-61.533v43c0,7.91917 6.41417,14.33333 14.33333,14.33333h100.33333c7.91917,0 14.33333,-6.41417 14.33333,-14.33333v-100.33333c0,-7.91917 -6.41417,-14.33333 -14.33333,-14.33333z"></path></g></g></svg>