<?xml version="1.0" standalone="no"?>
<!DOCTYPE svg PUBLIC "-//W3C//DTD SVG 20010904//EN"
 "http://www.w3.org/TR/2001/REC-SVG-20010904/DTD/svg10.dtd">
<svg version="1.0" xmlns="http://www.w3.org/2000/svg"
 width="512.000000pt" height="512.000000pt" viewBox="0 0 512.000000 512.000000"
 preserveAspectRatio="xMidYMid meet">
<metadata>
Created by potrace 1.14, written by Peter Selinger 2001-2017
</metadata>
<g transform="translate(0.000000,512.000000) scale(0.100000,-0.100000)"
fill="#000000" stroke="none">
<path d="M85 4607 c-22 -12 -50 -40 -62 -62 l-23 -40 2 -446 3 -446 28 -36
c38 -51 81 -71 148 -71 69 -1 129 34 159 94 19 37 20 58 20 354 l0 315 479 3
479 3 39 31 c49 39 73 87 73 148 0 63 -32 121 -86 152 l-41 24 -589 0 -589 0
-40 -23z"/>
<path d="M3776 4606 c-54 -32 -86 -88 -86 -151 0 -62 23 -109 73 -149 l39 -31
479 -3 479 -3 0 -315 c0 -296 1 -317 20 -354 30 -60 90 -95 159 -94 67 0 110
20 148 71 l28 36 3 446 2 446 -23 40 c-12 22 -40 50 -62 62 l-40 23 -590 0
-590 0 -39 -24z"/>
<path d="M2344 3830 c-537 -42 -1043 -252 -1514 -629 -121 -97 -367 -337 -481
-468 -100 -116 -119 -159 -100 -223 25 -85 327 -406 552 -586 418 -335 869
-542 1374 -630 184 -32 512 -44 701 -25 508 51 991 249 1398 575 185 148 452
432 566 604 40 60 46 110 22 164 -21 46 -287 317 -438 446 -645 551 -1384 825
-2080 772z m394 -321 c582 -63 1163 -366 1685 -878 48 -47 87 -89 87 -93 0
-17 -157 -192 -268 -300 -369 -356 -789 -564 -1297 -645 -153 -24 -497 -24
-655 0 -274 42 -511 117 -765 242 -188 92 -355 198 -515 325 -108 85 -400 370
-400 389 0 21 296 308 420 407 362 289 735 465 1130 533 63 11 133 22 155 24
91 8 332 6 423 -4z"/>
<path d="M2379 3290 c-225 -56 -402 -197 -508 -407 -54 -109 -75 -202 -75
-338 0 -143 16 -210 81 -345 39 -82 59 -108 142 -191 82 -82 110 -103 191
-142 136 -67 200 -82 350 -81 146 0 216 16 336 75 366 180 527 628 358 997
-104 227 -302 387 -542 437 -93 20 -240 18 -333 -5z m81 -161 c105 -46 170
-147 170 -264 0 -165 -126 -289 -292 -288 -237 1 -370 275 -225 465 82 107
221 142 347 87z"/>
<path d="M117 1606 c-47 -17 -81 -48 -101 -91 -14 -28 -16 -95 -16 -467 0
-431 0 -433 23 -473 13 -22 40 -49 62 -62 l40 -23 589 0 589 0 41 24 c54 31
86 89 86 152 0 61 -24 109 -73 148 l-39 31 -479 3 -479 3 0 315 c0 296 -1 317
-20 354 -39 77 -142 116 -223 86z"/>
<path d="M4888 1611 c-45 -15 -87 -50 -108 -91 -19 -37 -20 -60 -20 -354 l0
-315 -479 -3 -479 -3 -39 -31 c-49 -40 -73 -87 -73 -148 0 -64 34 -123 88
-154 l40 -22 588 0 589 0 40 23 c22 12 50 40 62 62 l23 40 -2 446 -3 446 -28
36 c-15 20 -41 44 -57 52 -37 19 -107 27 -142 16z"/>
</g>
</svg>
